<?xml version="1.0" standalone="no"?>
<!DOCTYPE svg PUBLIC "-//W3C//DTD SVG 1.1//EN" "http://www.w3.org/Graphics/SVG/1.1/DTD/svg11.dtd" >
<svg xmlns="http://www.w3.org/2000/svg">
<metadata>Generated by IcoMoon</metadata>
<defs>
<font id="icomoon" horiz-adv-x="1024">
<font-face units-per-em="1024" ascent="960" descent="-64" />
<missing-glyph horiz-adv-x="1024" />
<glyph unicode="&#x20;" horiz-adv-x="512" d="" />
<glyph unicode="&#xe900;" glyph-name="prev-arrow" horiz-adv-x="544" d="M70.707 405.95l319.034-453.474c13.999-19.855 36.68-19.855 50.714 0 13.999 19.855 13.999 52.103 0 71.958l-293.729 417.493 293.693 417.493c13.999 19.855 13.999 52.103 0 72.008-13.999 19.855-36.715 19.855-50.714 0l-319.034-453.47c-13.784-19.649-13.784-52.405 0.035-72.008z" />
<glyph unicode="&#xe901;" glyph-name="down" d="M440.91 960v-529.708l-238.163 238.163-102.657-103.683 412.68-412.68 1.027 1.027 1.027-1.027 412.68 412.68-102.667 103.683-238.153-238.163v529.708zM101.116-66.565h825.359v145.772h-825.359z" />
<glyph unicode="&#xe902;" glyph-name="share" d="M841.716 290.616c-41.874 0-79.814-15.296-109.967-39.791l-370.445 193.831 378.371 197.973c28.788-20.735 63.858-33.266 102.041-33.266 96.823 0 175.318 78.495 175.318 175.318s-78.484 175.318-175.318 175.318c-96.823 0-175.318-78.484-175.318-175.318 0-4.27 0.96-8.261 1.261-12.462l-371.787-194.525c-30.986 27.642-71.414 44.952-116.215 44.952-96.823 0-175.318-78.495-175.318-175.318s78.495-175.318 175.318-175.318c42.939 0 81.758 16.037 112.235 41.666l374.738-196.064c-0.012-0.787-0.231-1.527-0.231-2.314 0-96.823 78.495-175.318 175.318-175.318s175.318 78.484 175.318 175.318c0 96.823-78.495 175.318-175.318 175.318z" />
<glyph unicode="&#xe903;" glyph-name="linkedin" d="M804.259 165.175h-121.651v258.504c0 12.184-12.258 32.070-20.886 36.884-11.406 6.407-38.347 6.962-50.623 1.037l-50.142-24.108v-272.317h-121.651v425.779h121.651v-18.683c48.142 21.96 114.967 19.849 160.257-5.592 48.105-26.923 83.045-87.1 83.045-143zM317.654 636.559c-42.050 0-76.027 34.033-76.027 76.027s33.977 76.046 76.027 76.046c42.050 0 76.027-34.051 76.027-76.046s-33.977-76.027-76.027-76.027zM378.48 165.175h-121.651v425.779h121.651zM511.981 960c-282.779 0-511.991-229.249-511.991-512.009 0-282.779 229.212-511.991 511.991-511.991 282.798 0 512.009 229.212 512.009 511.991 0 282.76-229.212 512.009-512.009 512.009z" />
<glyph unicode="&#xe904;" glyph-name="instagram" d="M820.054 560.451h-220.266c-23.923 17.035-53.141 27.089-84.655 27.089-31.533 0-60.732-10.054-84.637-27.089h-226.58v42.902c0 84.896 69.083 153.979 153.979 153.979h308.18c84.896 0 153.979-69.083 153.979-153.979zM820.054 292.655c0-84.896-69.083-153.979-153.979-153.979h-308.18c-84.896 0-153.979 69.083-153.979 153.979v210.767h178.864c-8.906-18.886-13.905-39.939-13.905-62.14 0-80.656 65.602-146.258 146.258-146.258s146.276 65.602 146.276 146.258c0 22.201-5.018 43.253-13.905 62.14h172.55zM511.967 960.007c-282.757 0-511.967-229.246-511.967-512.022 0-282.757 229.209-511.985 511.967-511.985 282.813 0 512.022 229.228 512.022 511.985 0 282.776-229.209 512.022-512.022 512.022zM711.326 680.868h-52.863c-9.406 0-17.109-7.703-17.109-17.109v-52.882c0-9.406 7.703-17.109 17.109-17.109h52.863c9.406 0 17.109 7.703 17.109 17.109v52.882c0 9.406-7.703 17.109-17.109 17.109z" />
<glyph unicode="&#xe905;" glyph-name="facebook" d="M698.3 687.775h-119.17c-14.072 0-29.811-19.109-29.811-44.698v-75.898h148.981v-148.018h-148.981v-358.492h-148.963v358.492h-119.189v148.018h119.189v74.491c0 106.801 80.175 193.661 178.774 193.661h119.17zM511.972 960c-282.76 0-511.972-229.23-511.972-512.009 0-282.76 229.212-511.991 511.972-511.991 282.816 0 512.028 229.23 512.028 511.991 0 282.779-229.212 512.009-512.028 512.009z" />
<glyph unicode="&#xe906;" glyph-name="next-arrow" horiz-adv-x="544" d="M440.659 477.578l-318.111 454.122c-13.959 19.883-36.639 19.929-50.714 0.103-14.039-19.826-14.105-52.075-0.146-71.958l292.879-418.090-294.542-416.895c-14.039-19.826-14.105-52.075-0.146-72.008 13.959-19.883 36.675-19.929 50.714-0.103l319.956 452.82c13.824 19.621 13.891 52.377 0.111 72.008z" />
<glyph unicode="&#xe909;" glyph-name="home" d="M862.74 419.496l3.398-436.596c0.186-25.693-20.48-46.685-46.173-46.918-0.14 0-0.233 0-0.372 0h-193.722v358.819h-223.465v-358.819h-203.776c-25.647 0-46.452 20.759-46.545 46.406l-1.396 437.108zM866.51 419.077h112.826c24.669 0 44.637 19.782 44.637 44.125 0 11.823-4.794 23.18-13.359 31.465l-467.363 452.701c-17.361 16.849-45.149 16.849-62.511 0l-467.363-452.701c-17.594-17.036-17.873-44.963-0.605-62.371 8.378-8.425 19.875-13.219 31.884-13.219h107.567z" />
<glyph unicode="&#xe90b;" glyph-name="message" d="M510.4 288.493l-510.405 382.816v-606.119h1020.823v606.119zM0 830.808l510.405-382.816 510.405 382.816z" />
<glyph unicode="&#xe90d;" glyph-name="phone" d="M551.556 662.558c-16.962-0.608-30.218-14.852-29.61-31.814 0.58-16.124 13.527-29.055 29.651-29.612 37.784-1.87 63.92-11.209 80.048-26.169s26.241-37.403 25.944-78.123c-0.33-16.97 13.16-30.992 30.13-31.322 16.968-0.33 30.992 13.16 31.322 30.13 0.004 0.248 0.006 0.496 0.004 0.745 0.381 52.177-15.012 95.253-45.609 123.632-30.595 28.379-72.397 40.194-118.809 42.488-1.022 0.068-2.048 0.082-3.072 0.045zM530.792 818.964c-3.572 0.029-7.168 0.025-10.793-0.016-16.972 0.061-30.779-13.65-30.839-30.622-0.061-16.974 13.65-30.781 30.622-30.841 0.297-0.002 0.594 0.002 0.891 0.008 104.294 1.141 172.409-26.595 218.315-75.842 45.908-49.246 71.252-123.902 77.427-222.114 0.848-16.951 15.278-30.005 32.229-29.157 16.951 0.85 30.005 15.28 29.155 32.231-0.012 0.262-0.029 0.522-0.049 0.782-6.709 106.74-34.623 196.667-93.809 260.162-57.338 61.51-142.477 94.554-253.149 95.408zM209.698 845.567c-2.925-0.129-5.724-1.219-7.971-3.097 0 0-76.030-63.547-136.968-123.652-32.369-31.924-59.75-64.32-63.834-97.485-5.339-43.354 12.423-103.010 53.815-176.28 41.39-73.271 107.108-159.736 200.643-253.381 93.54-93.647 180.023-159.429 253.266-200.86 73.243-41.429 132.796-59.218 175.921-53.895 23.728 2.929 47.442 17.818 71.836 37.255s49.052 43.964 71.283 68.112c44.462 48.294 79.254 95.275 79.254 95.275 4.19 5.659 3.265 13.601-2.12 18.139 0 0-51.39 43.311-105.306 86.041-26.958 21.365-54.526 42.576-76.88 58.325-11.178 7.875-21.004 14.373-29.168 18.993-4.084 2.312-7.711 4.166-11.323 5.542-3.615 1.378-6.842 3.346-13.928 1.446-7.152-1.919-10.908-6.011-14.549-10.228-3.639-4.217-6.906-9.126-10.187-14.637-6.56-11.020-13.036-24.449-19.137-37.65-6.101-13.203-11.803-26.175-16.337-35.627-1.87-3.899-3.351-6.646-4.645-8.942-3.084 0.467-7.225 1.255-12.579 2.64-11.387 2.943-27.302 8.2-46.326 16.833-38.046 17.267-88.58 48.009-141.474 100.966-52.994 53.056-84.142 102.486-101.556 139.889-8.708 18.702-13.976 34.425-16.802 45.888-1.411 5.73-2.21 10.41-2.544 13.675-0.143 1.391-0.145 0.846-0.121 1.661 2.13 1.28 5.622 3.035 10.115 4.97 9.421 4.055 22.491 8.823 35.826 14.023 13.335 5.202 26.939 10.799 38.322 17.218 11.385 6.418 22.34 12.759 25.457 26.933 1.329 6.052-0.037 9.892-1.376 13.838-1.341 3.946-3.211 7.903-5.538 12.253-4.655 8.698-11.203 18.874-19.13 30.284-15.856 22.821-37.2 50.383-58.696 77.152-42.992 53.535-86.583 103.795-86.583 103.795-2.666 3.074-6.593 4.766-10.66 4.59zM533.54 959.995c-16.97 0.326-30.992-13.167-31.318-30.136-0.328-16.97 13.165-30.99 30.134-31.318 0.252-0.004 0.506-0.006 0.76-0.004 165.184-1.149 265.341-47.178 329.126-121.44s92.58-181.496 100.327-309.613c0.784-16.955 15.163-30.065 32.119-29.28 16.953 0.784 30.063 15.165 29.278 32.119-0.012 0.291-0.031 0.582-0.051 0.87-8.172 135.105-38.351 256.645-115.053 345.946s-198.541 141.625-375.323 142.856z" />
<glyph unicode="&#xe90e;" glyph-name="twitter" d="M776.69 583.76c0.259-5.851 0.389-11.739 0.389-17.664 0-180.493-137.37-388.594-388.576-388.594-77.137 0-148.924 22.608-209.36 61.343 10.684-1.241 21.553-1.889 32.57-1.889 63.991 0 122.89 21.83 169.625 58.455-59.751 1.111-110.207 40.587-127.575 94.857 8.332-1.592 16.887-2.444 25.7-2.444 12.443 0 24.515 1.648 35.976 4.777-62.491 12.554-109.559 67.75-109.559 133.926 0 0.574 0 1.148 0 1.722 18.423-10.239 39.476-16.387 61.862-17.090-36.643 24.497-60.751 66.306-60.751 113.688 0 25.015 6.74 48.493 18.497 68.657 67.361-82.637 167.995-136.999 281.498-142.702-2.314 9.999-3.537 20.423-3.537 31.125 0 75.434 61.158 136.574 136.592 136.574 39.272 0 74.767-16.59 99.69-43.124 31.107 6.129 60.343 17.479 86.729 33.144-10.202-31.903-31.866-58.658-60.066-75.564 27.644 3.296 53.955 10.647 78.452 21.497-18.312-27.385-41.476-51.437-68.157-70.694zM511.968 960.004c-282.757 0-511.966-229.246-511.966-512.021 0-282.757 229.209-511.984 511.966-511.984 282.812 0 512.021 229.227 512.021 511.984 0 282.775-229.209 512.021-512.021 512.021z" />
<glyph unicode="&#xe96c;" glyph-name="bubbles" horiz-adv-x="1152" d="M1088 58.834c0-45.5 26.028-84.908 64-104.184v-15.938c-10.626-1.454-21.472-2.224-32.5-2.224-68.008 0-129.348 28.528-172.722 74.264-26.222-6.982-54.002-10.752-82.778-10.752-159.058 0-288 114.616-288 256s128.942 256 288 256c159.058 0 288-114.616 288-256 0-55.348-19.764-106.592-53.356-148.466-6.824-14.824-10.644-31.312-10.644-48.7zM512 960c278.458 0 504.992-180.614 511.836-405.52-49.182 21.92-103.586 33.52-159.836 33.52-95.56 0-185.816-33.446-254.138-94.178-70.846-62.972-109.862-147.434-109.862-237.822 0-44.672 9.544-87.888 27.736-127.788-5.228-0.126-10.468-0.212-15.736-0.212-27.156 0-53.81 1.734-79.824 5.044-109.978-109.978-241.25-129.7-368.176-132.596v26.916c68.536 33.578 128 94.74 128 164.636 0 9.754-0.758 19.33-2.164 28.696-115.796 76.264-189.836 192.754-189.836 323.304 0 229.75 229.23 416 512 416z" />
<glyph unicode="&#xe96d;" glyph-name="bubbles2" horiz-adv-x="1152" d="M480 960v0c265.096 0 480-173.914 480-388.448s-214.904-388.448-480-388.448c-25.458 0-50.446 1.62-74.834 4.71-103.106-102.694-222.172-121.108-341.166-123.814v25.134c64.252 31.354 116 88.466 116 153.734 0 9.106-0.712 18.048-2.030 26.794-108.558 71.214-177.97 179.988-177.97 301.89 0 214.534 214.904 388.448 480 388.448zM996 89.314c0-55.942 36.314-104.898 92-131.772v-21.542c-103.126 2.318-197.786 18.102-287.142 106.126-21.14-2.65-42.794-4.040-64.858-4.040-95.47 0-183.408 25.758-253.614 69.040 144.674 0.506 281.26 46.854 384.834 130.672 52.208 42.252 93.394 91.826 122.414 147.348 30.766 58.866 46.366 121.582 46.366 186.406 0 10.448-0.45 20.836-1.258 31.168 72.57-59.934 117.258-141.622 117.258-231.676 0-104.488-60.158-197.722-154.24-258.764-1.142-7.496-1.76-15.16-1.76-22.966z" />
<glyph unicode="&#xe96e;" glyph-name="bubble2" d="M512 768c-54.932 0-107.988-8.662-157.694-25.742-46.712-16.054-88.306-38.744-123.628-67.444-66.214-53.798-102.678-122.984-102.678-194.814 0-40.298 11.188-79.378 33.252-116.152 22.752-37.92 56.982-72.586 98.988-100.252 30.356-19.992 50.78-51.948 56.176-87.894 1.8-11.984 2.928-24.088 3.37-36.124 7.47 6.194 14.75 12.846 21.88 19.976 24.154 24.152 56.78 37.49 90.502 37.49 5.368 0 10.762-0.336 16.156-1.024 20.974-2.666 42.398-4.020 63.676-4.020 54.934 0 107.988 8.66 157.694 25.742 46.712 16.054 88.306 38.744 123.628 67.444 66.214 53.796 102.678 122.984 102.678 194.814s-36.464 141.016-102.678 194.814c-35.322 28.698-76.916 51.39-123.628 67.444-49.706 17.080-102.76 25.742-157.694 25.742zM512 896v0c282.77 0 512-186.25 512-416 0-229.752-229.23-416-512-416-27.156 0-53.81 1.734-79.824 5.044-109.978-109.978-241.25-129.7-368.176-132.596v26.916c68.536 33.578 128 94.74 128 164.636 0 9.754-0.758 19.33-2.164 28.696-115.796 76.264-189.836 192.754-189.836 323.304 0 229.75 229.23 416 512 416z" />
<glyph unicode="&#xe96f;" glyph-name="bubbles3" horiz-adv-x="1152" d="M1088 58.834c0-45.5 26.028-84.908 64-104.184v-15.938c-10.626-1.454-21.472-2.224-32.5-2.224-68.008 0-129.348 28.528-172.722 74.264-26.222-6.982-54.002-10.752-82.778-10.752-159.058 0-288 114.616-288 256s128.942 256 288 256c159.058 0 288-114.616 288-256 0-55.348-19.764-106.592-53.356-148.466-6.824-14.824-10.644-31.312-10.644-48.7zM230.678 738.814c-66.214-53.798-102.678-122.984-102.678-194.814 0-40.298 11.188-79.378 33.252-116.15 22.752-37.92 56.982-72.586 98.988-100.252 30.356-19.992 50.78-51.948 56.176-87.894 1.8-11.984 2.928-24.088 3.37-36.124 7.47 6.194 14.75 12.846 21.88 19.976 24.154 24.152 56.78 37.49 90.502 37.49 5.368 0 10.762-0.336 16.156-1.024 20.948-2.662 42.344-4.016 63.594-4.020v-128c-27.128 0.002-53.754 1.738-79.742 5.042-109.978-109.978-241.25-129.7-368.176-132.596v26.916c68.536 33.578 128 94.74 128 164.636 0 9.754-0.758 19.33-2.164 28.696-115.796 76.264-189.836 192.754-189.836 323.304 0 229.75 229.23 416 512 416 278.458 0 504.992-180.614 511.836-405.52-41.096 18.316-85.84 29.422-132.262 32.578-11.53 56.068-45.402 108.816-98.252 151.756-35.322 28.698-76.916 51.39-123.628 67.444-49.706 17.080-102.76 25.742-157.694 25.742-54.932 0-107.988-8.662-157.694-25.742-46.712-16.054-88.306-38.744-123.628-67.444z" />
<glyph unicode="&#xe970;" glyph-name="bubbles4" horiz-adv-x="1152" d="M480 832c-50.666 0-99.582-7.95-145.386-23.628-42.924-14.694-81.114-35.436-113.502-61.646-60.044-48.59-93.112-110.802-93.112-175.174 0-35.99 10.066-70.948 29.92-103.898 20.686-34.34 51.898-65.794 90.26-90.958 30.44-19.968 50.936-51.952 56.362-87.95 0.902-5.99 1.63-12.006 2.18-18.032 2.722 2.52 5.424 5.114 8.114 7.794 24.138 24.040 56.688 37.312 90.322 37.312 5.348 0 10.718-0.336 16.094-1.018 19.36-2.452 39.124-3.696 58.748-3.696 50.666 0 99.58 7.948 145.384 23.628 42.926 14.692 81.116 35.434 113.504 61.644 60.046 48.59 93.112 110.802 93.112 175.174s-33.066 126.582-93.112 175.174c-32.388 26.212-70.578 46.952-113.504 61.646-45.804 15.678-94.718 23.628-145.384 23.628zM480 960v0c265.096 0 480-173.914 480-388.448s-214.904-388.448-480-388.448c-25.458 0-50.446 1.62-74.834 4.71-103.106-102.694-222.172-121.108-341.166-123.814v25.134c64.252 31.354 116 88.466 116 153.734 0 9.106-0.712 18.048-2.030 26.794-108.558 71.214-177.97 179.988-177.97 301.89 0 214.534 214.904 388.448 480 388.448zM996 89.314c0-55.942 36.314-104.898 92-131.772v-21.542c-103.126 2.318-197.786 18.102-287.142 106.126-21.14-2.65-42.794-4.040-64.858-4.040-95.47 0-183.408 25.758-253.614 69.040 144.674 0.506 281.26 46.854 384.834 130.672 52.208 42.252 93.394 91.826 122.414 147.348 30.766 58.866 46.366 121.582 46.366 186.406 0 10.448-0.45 20.836-1.258 31.168 72.57-59.934 117.258-141.622 117.258-231.676 0-104.488-60.158-197.722-154.24-258.764-1.142-7.496-1.76-15.16-1.76-22.966z" />
<glyph unicode="&#xe971;" glyph-name="user" d="M576 253.388v52.78c70.498 39.728 128 138.772 128 237.832 0 159.058 0 288-192 288s-192-128.942-192-288c0-99.060 57.502-198.104 128-237.832v-52.78c-217.102-17.748-384-124.42-384-253.388h896c0 128.968-166.898 235.64-384 253.388z" />
<glyph unicode="&#xe986;" glyph-name="search" d="M992.262 88.604l-242.552 206.294c-25.074 22.566-51.89 32.926-73.552 31.926 57.256 67.068 91.842 154.078 91.842 249.176 0 212.078-171.922 384-384 384-212.076 0-384-171.922-384-384s171.922-384 384-384c95.098 0 182.108 34.586 249.176 91.844-1-21.662 9.36-48.478 31.926-73.552l206.294-242.552c35.322-39.246 93.022-42.554 128.22-7.356s31.892 92.898-7.354 128.22zM384 320c-141.384 0-256 114.616-256 256s114.616 256 256 256 256-114.616 256-256-114.614-256-256-256z" />
<glyph unicode="&#xea86;" glyph-name="mail4" d="M512 960c-282.77 0-512-229.23-512-512s229.23-512 512-512 512 229.23 512 512-229.23 512-512 512zM256 704h512c9.138 0 18.004-1.962 26.144-5.662l-282.144-329.168-282.144 329.17c8.14 3.696 17.006 5.66 26.144 5.66zM192 256v384c0 1.34 0.056 2.672 0.14 4l187.664-218.942-185.598-185.598c-1.444 5.336-2.206 10.886-2.206 16.54zM768 192h-512c-5.654 0-11.202 0.762-16.54 2.208l182.118 182.118 90.422-105.498 90.424 105.494 182.116-182.12c-5.34-1.44-10.886-2.202-16.54-2.202zM832 256c0-5.654-0.762-11.2-2.206-16.54l-185.6 185.598 187.666 218.942c0.084-1.328 0.14-2.66 0.14-4v-384z" />
<glyph unicode="&#xea8d;" glyph-name="google-plus3" d="M512 960c-282.8 0-512-229.2-512-512s229.2-512 512-512 512 229.2 512 512-229.2 512-512 512zM384 192c-141.6 0-256 114.4-256 256s114.4 256 256 256c69.2 0 127-25.2 171.6-67l-69.6-66.8c-19 18.2-52.2 39.4-102 39.4-87.4 0-158.8-72.4-158.8-161.6s71.4-161.6 158.8-161.6c101.4 0 139.4 72.8 145.2 110.4h-145.2v87.8h241.8c2.2-12.8 4-25.6 4-42.4 0-146.4-98-250.2-245.8-250.2zM832 448v-64h-64v64h-64v64h64v64h64v-64h64v-64h-64z" />
</font>
</defs>
</svg>
